<?xml version="1.0" standalone="no"?>
<!DOCTYPE svg PUBLIC "-//W3C//DTD SVG 20010904//EN"
 "http://www.w3.org/TR/2001/REC-SVG-20010904/DTD/svg10.dtd">
<svg version="1.0" xmlns="http://www.w3.org/2000/svg"
 width="320.000000pt" height="320.000000pt" viewBox="0 0 320.000000 320.000000"
 preserveAspectRatio="xMidYMid meet">
<metadata>
Created by potrace 1.11, written by Peter Selinger 2001-2013
</metadata>
<g transform="translate(0.000000,320.000000) scale(0.100000,-0.100000)"
fill="#000000" stroke="none">
<path d="M0 1600 l0 -1600 1600 0 1600 0 0 1600 0 1600 -1600 0 -1600 0 0
-1600z m1302 769 c91 -19 158 -57 231 -132 l69 -69 16 24 c27 40 99 103 149
131 99 53 250 72 375 46 142 -29 279 -132 338 -252 60 -123 62 -149 67 -744
l5 -543 -116 0 -116 0 0 478 c0 501 -7 624 -41 702 -43 101 -135 154 -264 154
-131 0 -219 -52 -264 -155 -34 -75 -41 -201 -41 -701 l0 -478 -115 0 -114 0
-4 553 c-3 597 -2 588 -60 674 -48 72 -123 107 -230 107 -131 0 -222 -52 -266
-154 -34 -78 -41 -201 -41 -702 l0 -478 -116 0 -116 0 5 543 c5 595 7 621 67
744 57 116 184 215 316 247 72 18 195 20 266 5z"/>
</g>
</svg>
